<svg width="20" height="20" viewBox="0 0 15 15" fill="none" xmlns="http://www.w3.org/2000/svg">
<path d="M14.5313 4.24125V3.25875H13.3819V1.23047C13.3801 1.03648 13.3014 0.851138 13.1631 0.715099C13.0249 0.579061 12.8382 0.503444 12.6443 0.504841H2.35583C2.16185 0.503444 1.97523 0.579061 1.83693 0.715099C1.69864 0.851138 1.61996 1.03648 1.61816 1.23047V13.8281C1.61996 14.0221 1.69864 14.2075 1.83693 14.3435C1.97523 14.4795 2.16185 14.5551 2.35583 14.5537H12.6443C12.8382 14.5551 13.0249 14.4795 13.1631 14.3435C13.3014 14.2075 13.3801 14.0221 13.3819 13.8281V11.7412H14.5313V10.7587H13.3819V7.99125H14.5313V7.00875H13.3819V4.24125H14.5313ZM12.3994 7.00875H11.0157V7.99125H12.3994V10.7587H11.0157V11.7412H12.3994V13.5712H2.60066V1.48734H12.3994V3.25875H11.0157V4.24125H12.3994V7.00875Z" fill="#E5E5E5"/>
<path d="M9.18865 8.99194L8.34651 8.44453L8.75139 7.45855V5.90959C8.75139 5.39899 8.54856 4.90931 8.18751 4.54826C7.82646 4.18721 7.33677 3.98438 6.82617 3.98438C6.31558 3.98438 5.82589 4.18721 5.46484 4.54826C5.10379 4.90931 4.90096 5.39899 4.90096 5.90959V7.44935L5.27365 8.46548L4.4637 8.99194C4.26228 9.12233 4.09677 9.30114 3.98232 9.51203C3.86787 9.72292 3.80814 9.95915 3.8086 10.1991V11.7188H9.84375V10.1991C9.84421 9.95915 9.78448 9.72292 9.67003 9.51203C9.55558 9.30114 9.39007 9.12233 9.18865 8.99194ZM8.90625 10.7812H4.7461V10.1991C4.74594 10.1154 4.76678 10.033 4.8067 9.95943C4.84662 9.88587 4.90435 9.82349 4.97461 9.77801L6.41113 8.84426L5.83846 7.28273V5.90959C5.83846 5.64763 5.94252 5.3964 6.12775 5.21117C6.31299 5.02594 6.56422 4.92188 6.82617 4.92188C7.08813 4.92188 7.33936 5.02594 7.52459 5.21117C7.70983 5.3964 7.81389 5.64763 7.81389 5.90959V7.27356L7.18401 8.80717L8.67774 9.77801C8.748 9.82349 8.80573 9.88587 8.84565 9.95943C8.88557 10.033 8.90641 10.1154 8.90625 10.1991V10.7812Z" fill="#E5E5E5"/>
</svg>
