<svg width="20" height="20" viewBox="0 0 15 15" fill="none" xmlns="http://www.w3.org/2000/svg">
<path d="M12.3633 6.62308H9.14062V3.81058H8.08594C8.4124 3.37476 8.58781 2.84435 8.58557 2.29982C8.58557 1.49006 8.20239 0.729187 7.58558 0.314197L7.3239 0.138123L7.06225 0.314197C6.44531 0.729246 6.06226 1.49009 6.06226 2.29982C6.06006 2.84436 6.23552 3.37475 6.56203 3.81055H5.39062V6.62305H2.63672C2.18622 6.62356 1.75431 6.80275 1.43575 7.1213C1.1172 7.43986 0.938012 7.87177 0.9375 8.32227V13.5938C0.937779 13.8423 1.03664 14.0806 1.2124 14.2564C1.38815 14.4321 1.62645 14.531 1.875 14.5313H13.125C13.3736 14.531 13.6118 14.4321 13.7876 14.2564C13.9634 14.0806 14.0622 13.8423 14.0625 13.5938V8.3223C14.062 7.87179 13.8828 7.43989 13.5642 7.12133C13.2457 6.80278 12.8138 6.62359 12.3633 6.62308ZM7.3239 1.33426C7.52868 1.58867 7.64807 1.93385 7.64807 2.29985C7.64807 2.66586 7.52868 3.01106 7.3239 3.26545C7.11914 3.01106 6.99976 2.66586 6.99976 2.29982C6.99976 1.93379 7.11914 1.58867 7.3239 1.33426ZM6.32812 4.74808H8.20312V6.62308H6.32812V4.74808ZM1.875 8.3223C1.87523 8.12035 1.95556 7.92674 2.09836 7.78394C2.24116 7.64114 2.43477 7.56081 2.63672 7.56058H12.3633C12.5652 7.56081 12.7588 7.64114 12.9016 7.78394C13.0444 7.92674 13.1248 8.12035 13.125 8.3223V9.24741L12.4922 9.52664C12.3684 9.58109 12.2347 9.60921 12.0995 9.60921C11.9643 9.60921 11.8305 9.58109 11.7068 9.52664L10.6055 9.04069L9.50391 9.52661C9.38014 9.58107 9.2464 9.60919 9.11118 9.60919C8.97596 9.60919 8.84222 9.58107 8.71846 9.52661L7.61719 9.04066L6.51562 9.52658C6.39186 9.58105 6.25812 9.60917 6.1229 9.60917C5.98768 9.60917 5.85394 9.58105 5.73018 9.52658L4.62891 9.04069L3.52755 9.52658C3.40378 9.58105 3.27004 9.60917 3.13482 9.60917C2.9996 9.60917 2.86586 9.58105 2.7421 9.52658L1.875 9.14408V8.3223ZM13.125 13.5938H1.875V10.1688L2.36361 10.3843C2.60664 10.4913 2.86925 10.5465 3.13477 10.5465C3.40028 10.5465 3.66289 10.4913 3.90592 10.3843L4.62891 10.0653L5.35192 10.3843C5.59495 10.4913 5.85755 10.5465 6.12306 10.5465C6.38857 10.5465 6.65118 10.4913 6.8942 10.3843L7.61719 10.0653L8.34015 10.3843C8.58316 10.4913 8.84577 10.5465 9.11127 10.5465C9.37677 10.5465 9.63938 10.4913 9.88239 10.3843L10.6055 10.0653L11.3285 10.3844C11.5715 10.4913 11.8341 10.5465 12.0996 10.5465C12.3651 10.5465 12.6277 10.4913 12.8707 10.3844L13.1254 10.272L13.1256 13.5938H13.125Z" fill="#E5E5E5"/>
</svg>
