<svg width="25" height="30" viewBox="0 0 25 30" fill="none" xmlns="http://www.w3.org/2000/svg">
<path d="M23.8526 0.9375H22.7538V1.3575C21.2241 1.76812 21.0041 3.47203 20.9178 4.12312C20.8768 4.43109 20.7936 5.03344 20.6905 5.77125H1.55767C0.800634 5.77125 0.715869 6.62016 0.814697 7.08984L3.05923 18.9806C3.15767 19.4503 3.57212 19.8337 3.97837 19.8337H20.7534C21.1573 19.8337 21.4866 20.228 21.4866 20.7127C21.4866 21.1973 21.1573 21.5916 20.7534 21.5916H2.44321C2.24896 21.5916 2.06267 21.6842 1.92531 21.849C1.78796 22.0138 1.71079 22.2374 1.71079 22.4705C1.71079 22.7036 1.78796 22.9271 1.92531 23.0919C2.06267 23.2568 2.24896 23.3494 2.44321 23.3494H3.39243C2.93411 23.653 2.55204 24.0986 2.28601 24.6397C2.01999 25.1808 1.87976 25.7975 1.87993 26.4258H2.61235C2.61235 27.8813 3.59673 29.0625 4.80962 29.0625C6.02251 29.0625 7.00688 27.8813 7.00688 26.4258H7.73931C7.7394 25.7975 7.59909 25.1807 7.333 24.6396C7.06691 24.0985 6.68478 23.653 6.22641 23.3494H16.5756C16.1173 23.653 15.7351 24.0985 15.469 24.6396C15.203 25.1807 15.0627 25.7975 15.0627 26.4258H15.7952C15.806 27.1166 16.0423 27.7747 16.4533 28.2587C16.8642 28.7426 17.417 29.0137 17.9928 29.0137C18.5686 29.0137 19.1214 28.7426 19.5324 28.2587C19.9433 27.7747 20.1796 27.1166 20.1905 26.4258H20.9229C20.9229 25.7976 20.7827 25.1808 20.5167 24.6398C20.2506 24.0987 19.8686 23.6531 19.4104 23.3494H20.7541C21.3368 23.349 21.8955 23.0711 22.3075 22.5767C22.7195 22.0823 22.9511 21.4118 22.9514 20.7127C22.9514 20.3663 22.8945 20.0234 22.784 19.7035C22.6735 19.3835 22.5116 19.0929 22.3075 18.848C22.1034 18.6032 21.8611 18.409 21.5944 18.2765C21.3278 18.144 21.042 18.0759 20.7534 18.0759H20.4811L21.4178 11.0869C21.6788 9.24094 22.2413 5.25328 22.3733 4.26141C22.4397 3.76031 22.5041 3.40828 22.7538 3.21094V3.57375H23.8526C23.9495 3.57338 24.0424 3.52705 24.1109 3.44486C24.1795 3.36267 24.2182 3.25129 24.2186 3.135V1.37719C24.2184 1.26073 24.1798 1.14911 24.1112 1.06672C24.0426 0.98433 23.9496 0.937871 23.8526 0.9375ZM4.80962 27.7444C4.51829 27.744 4.23897 27.605 4.03297 27.3578C3.82697 27.1106 3.7111 26.7754 3.71079 26.4258H5.90806C5.90775 26.7753 5.79193 27.1104 5.58601 27.3576C5.38009 27.6048 5.10088 27.7439 4.80962 27.7444ZM17.9932 27.7444C17.7018 27.7441 17.4224 27.6051 17.2163 27.3579C17.0102 27.1107 16.8943 26.7755 16.894 26.4258H19.092C19.0915 26.7753 18.9756 27.1103 18.7696 27.3575C18.5637 27.6046 18.2845 27.7438 17.9932 27.7444ZM17.092 7.96594C17.1049 7.8468 17.153 7.73718 17.2276 7.65701C17.3021 7.57683 17.3982 7.53143 17.4983 7.52906H19.8174C20.019 7.52906 20.1592 7.72406 20.1276 7.96359L19.8979 9.73125C19.8674 9.97031 19.6764 10.1658 19.4745 10.1658H17.2624C17.2158 10.1673 17.1695 10.1566 17.1266 10.1346C17.0838 10.1125 17.0455 10.0796 17.0143 10.0381C16.983 9.9966 16.9597 9.94747 16.9458 9.89409C16.9319 9.84071 16.9278 9.78436 16.9338 9.72891L17.092 7.96594ZM16.6979 12.3605C16.711 12.2415 16.7592 12.132 16.8337 12.0519C16.9082 11.9717 17.0041 11.9262 17.1041 11.9236H19.2459C19.4479 11.9236 19.5877 12.1186 19.5573 12.3581L19.3842 13.6866C19.3534 13.9256 19.1627 14.1211 18.9608 14.1211H16.9073C16.8607 14.1224 16.8145 14.1117 16.7717 14.0896C16.729 14.0675 16.6907 14.0346 16.6595 13.9931C16.6283 13.9516 16.6049 13.9025 16.591 13.8492C16.5771 13.7959 16.5729 13.7396 16.5788 13.6842L16.6979 12.3605ZM2.68188 9.73922L2.31079 7.95563C2.26235 7.72031 2.38813 7.52906 2.59009 7.52906H5.34751C5.54985 7.52906 5.73227 7.72547 5.75376 7.96594L5.91157 9.72937C5.91743 9.78476 5.91326 9.84101 5.89934 9.89428C5.88543 9.94755 5.86211 9.9966 5.83096 10.0381C5.79981 10.0795 5.76158 10.1125 5.71886 10.1346C5.67615 10.1567 5.62996 10.1675 5.58345 10.1663H3.13774C2.93618 10.1663 2.73071 9.97359 2.68188 9.73922ZM3.95962 14.1211C3.75806 14.1211 3.55259 13.9289 3.50415 13.6945L3.22446 12.3506C3.17563 12.1153 3.30063 11.9241 3.50259 11.9241H5.74048C5.94243 11.9241 6.12524 12.1205 6.14673 12.3609L6.26548 13.6847C6.2714 13.7401 6.26728 13.7964 6.25339 13.8497C6.2395 13.903 6.21618 13.9521 6.18502 13.9935C6.15386 14.035 6.1156 14.068 6.07285 14.0901C6.0301 14.1121 5.98388 14.1229 5.93735 14.1216H3.95962V14.1211ZM6.29126 18.0764H4.78149C4.57876 18.0764 4.37446 17.8842 4.32563 17.6498L4.04595 16.3059C3.99751 16.0706 4.12251 15.8794 4.32485 15.8794H6.09438C6.29634 15.8794 6.47915 16.0758 6.50141 16.3162L6.61938 17.64C6.62531 17.6954 6.62119 17.7516 6.6073 17.8049C6.59341 17.8582 6.57009 17.9073 6.53892 17.9487C6.50775 17.9902 6.46948 18.023 6.42673 18.0451C6.38398 18.0671 6.33777 18.0778 6.29126 18.0764ZM10.7803 17.6367C10.7799 17.7533 10.7411 17.865 10.6723 17.9474C10.6035 18.0298 10.5103 18.0762 10.4131 18.0764H8.50259C8.40256 18.0739 8.3066 18.0285 8.23212 17.9483C8.15765 17.8681 8.10961 17.7586 8.09673 17.6395L7.97798 16.3158C7.97192 16.2604 7.97594 16.2041 7.98976 16.1507C8.00357 16.0974 8.02685 16.0483 8.058 16.0068C8.08914 15.9652 8.12741 15.9323 8.17017 15.9102C8.21294 15.8882 8.25918 15.8775 8.30571 15.8789H10.4131C10.5104 15.8789 10.6037 15.9252 10.6725 16.0076C10.7413 16.0901 10.7801 16.2019 10.7803 16.3186V17.6367ZM10.7803 13.6819C10.7799 13.7985 10.7411 13.9102 10.6723 13.9926C10.6035 14.0749 10.5103 14.1213 10.4131 14.1216H8.14829C7.94673 14.1216 7.7647 13.9252 7.74204 13.6847L7.62407 12.3609C7.61809 12.3056 7.62215 12.2493 7.63599 12.196C7.64983 12.1427 7.67311 12.0936 7.70424 12.0521C7.73538 12.0106 7.77362 11.9777 7.81635 11.9556C7.85908 11.9335 7.90529 11.9227 7.95181 11.9241H10.4131C10.5104 11.9241 10.6037 11.9704 10.6725 12.0528C10.7413 12.1352 10.7801 12.2471 10.7803 12.3637V13.6819ZM10.7803 9.72656C10.7799 9.84318 10.7411 9.95487 10.6723 10.0373C10.6035 10.1196 10.5103 10.166 10.4131 10.1663H7.79517C7.69507 10.1639 7.59901 10.1185 7.52446 10.0383C7.4499 9.95813 7.40181 9.84851 7.38892 9.72937L7.2311 7.96594C7.22518 7.91054 7.2293 7.85426 7.24319 7.80095C7.25708 7.74764 7.2804 7.69856 7.31156 7.65708C7.34272 7.61559 7.38098 7.58267 7.42373 7.56057C7.46648 7.53848 7.5127 7.52773 7.55923 7.52906H10.4135C10.5108 7.52906 10.6041 7.57536 10.6729 7.65779C10.7417 7.74022 10.7805 7.85205 10.7807 7.96875V9.72656H10.7803ZM14.7487 17.6395C14.7357 17.7586 14.6876 17.8682 14.6131 17.9484C14.5385 18.0285 14.4425 18.0739 14.3424 18.0764H12.6159C12.5187 18.0762 12.4256 18.0298 12.3569 17.9474C12.2881 17.865 12.2494 17.7533 12.2491 17.6367V16.3181C12.2493 16.2015 12.288 16.0897 12.3568 16.0073C12.4255 15.9249 12.5187 15.8786 12.6159 15.8784H14.5393C14.7409 15.8784 14.8893 16.0748 14.8674 16.3153L14.7487 17.6395ZM15.1026 13.6842C15.0896 13.8033 15.0415 13.9129 14.967 13.993C14.8924 14.0732 14.7964 14.1186 14.6963 14.1211H12.6159C12.5187 14.1208 12.4256 14.0745 12.3569 13.9921C12.2881 13.9097 12.2494 13.798 12.2491 13.6814V12.3628C12.2493 12.2462 12.288 12.1344 12.3568 12.052C12.4255 11.9696 12.5187 11.9232 12.6159 11.9231H14.8932C15.0952 11.9231 15.2432 12.1195 15.2209 12.36L15.1026 13.6842ZM15.4565 9.72937C15.4435 9.84847 15.3954 9.95804 15.3209 10.0382C15.2463 10.1184 15.1503 10.1638 15.0502 10.1663H12.6159C12.5187 10.166 12.4256 10.1196 12.3569 10.0372C12.2881 9.95483 12.2494 9.84314 12.2491 9.72656V7.96875C12.2493 7.85213 12.288 7.74037 12.3568 7.65795C12.4255 7.57554 12.5187 7.52919 12.6159 7.52906H15.2866C15.4885 7.52906 15.6366 7.72547 15.6151 7.96594L15.4565 9.72937ZM18.2815 18.0764V18.0731L18.2784 18.0764H16.5534C16.542 18.0764 16.5323 18.0698 16.5209 18.068C16.519 18.052 16.519 18.0361 16.5166 18.0192L16.4995 18.0623C16.5042 18.0639 16.5091 18.0651 16.5139 18.0661C16.3338 18.0413 16.2049 17.8627 16.2256 17.6395L16.3436 16.3158C16.3567 16.1968 16.4049 16.0873 16.4794 16.0072C16.5539 15.9271 16.6498 15.8816 16.7499 15.8789H18.7327C18.9346 15.8789 19.0737 16.0739 19.0432 16.3134L18.8702 17.6419C18.8401 17.8809 18.6495 18.0764 18.4475 18.0764H18.2815Z" fill="#6CD6D6"/>
</svg>
