<svg width="20" height="20" viewBox="0 0 15 15" fill="none" xmlns="http://www.w3.org/2000/svg">
<path d="M6.5964 3.90002L4.48202 1.45939C4.23827 1.17814 3.7914 1.17939 3.50827 1.46314L1.76952 3.20502C1.25202 3.72314 1.1039 4.49252 1.40327 5.10939C3.19178 8.8125 6.1783 11.8032 9.8789 13.5969C10.4951 13.8963 11.2639 13.7481 11.7814 13.23L13.5364 11.4719C13.8208 11.1875 13.8214 10.7381 13.5376 10.4944L11.0876 8.39127C10.8314 8.17127 10.4333 8.20002 10.1764 8.45752L9.3239 9.31127C9.28025 9.35701 9.2228 9.38716 9.16036 9.3971C9.09793 9.40703 9.03396 9.3962 8.97827 9.36627C7.5848 8.56383 6.42889 7.40641 5.62827 6.01189C5.59829 5.95611 5.58743 5.89204 5.59737 5.82949C5.6073 5.76695 5.63748 5.70939 5.68327 5.66564L6.53327 4.81502C6.79077 4.55627 6.8189 4.15627 6.5964 3.89939V3.90002Z" stroke="#E5E5E5" stroke-width="2" stroke-linecap="round" stroke-linejoin="round"/>
</svg>
